<?xml version="1.0" encoding="UTF-8"?>
<svg height="16px" viewBox="0 0 16 16" width="16px" xmlns="http://www.w3.org/2000/svg" xmlns:xlink="http://www.w3.org/1999/xlink">
    <filter id="a" height="100%" width="100%" x="0%" y="0%">
        <feColorMatrix color-interpolation-filters="sRGB" values="0 0 0 0 1 0 0 0 0 1 0 0 0 0 1 0 0 0 1 0"/>
    </filter>
    <mask id="b">
        <g filter="url(#a)">
            <rect fill-opacity="0.8" height="19.2" width="19.2" x="-1.6" y="-1.6"/>
        </g>
    </mask>
    <clipPath id="c">
        <rect height="152" width="192"/>
    </clipPath>
    <mask id="d">
        <g filter="url(#a)">
            <rect fill-opacity="0.5" height="19.2" width="19.2" x="-1.6" y="-1.6"/>
        </g>
    </mask>
    <clipPath id="e">
        <rect height="152" width="192"/>
    </clipPath>
    <mask id="f">
        <g filter="url(#a)">
            <rect fill-opacity="0.5" height="19.2" width="19.2" x="-1.6" y="-1.6"/>
        </g>
    </mask>
    <clipPath id="g">
        <rect height="152" width="192"/>
    </clipPath>
    <mask id="h">
        <g filter="url(#a)">
            <rect fill-opacity="0.8" height="19.2" width="19.2" x="-1.6" y="-1.6"/>
        </g>
    </mask>
    <clipPath id="i">
        <rect height="152" width="192"/>
    </clipPath>
    <g mask="url(#b)">
        <g clip-path="url(#c)" transform="matrix(1 0 0 1 -168 -16)">
            <path d="m 15.061988 51.029891 h 32.559536 m -32.559536 15.481036 h 23.068987 m 15.961173 0 h 4.837263" fill="none" stroke="#4e342e" stroke-linecap="round" stroke-miterlimit="10" stroke-width="8" transform="matrix(0.870521 0 0 0.870521 17.036665 24.483673)"/>
        </g>
    </g>
    <g mask="url(#d)">
        <g clip-path="url(#e)" transform="matrix(1 0 0 1 -168 -16)">
            <path d="m 28.839844 94.527344 h 2.613281 v 8.09375 h -2.613281 z m 21.894531 0 h 2.613281 v 8.09375 h -2.613281 z m 4.734375 0 h 2.613281 v 8.09375 h -2.613281 z m -21.484375 0 h 5.222656 v 8.09375 h -5.222656 z m 26.28125 0 h 6.09375 v 8.09375 h -6.09375 z m -18.734375 0 h 6.964844 v 8.09375 h -6.964844 z m 0 0" fill="#6d4c41"/>
        </g>
    </g>
    <g mask="url(#f)">
        <g clip-path="url(#g)" transform="matrix(1 0 0 1 -168 -16)">
            <path d="m 102.183594 66.859375 h 15.867187 v 14.53125 h -15.867187 z m 0 0" fill="#6d4c41"/>
        </g>
    </g>
    <g mask="url(#h)">
        <g clip-path="url(#i)" transform="matrix(1 0 0 1 -168 -16)">
            <path d="m 95.199219 245.023438 h 7.898437 m -7.898437 5.503906 h 12.433593" fill="none" stroke="#4e342e" stroke-linecap="round" stroke-miterlimit="10" stroke-width="2.61156" transform="matrix(1 0 0 1 8 -156)"/>
        </g>
    </g>
    <path d="m 3.054688 1.328125 c -1.65625 0 -3.0000005 1.34375 -3.0000005 3 v 2 c 0 0.550781 0.4492185 1 1.0000005 1 c 0.5625 0 1 0.4375 1 1 s -0.4375 1 -1 1 c -0.550782 0 -1.0000005 0.449219 -1.0000005 1 v 2 c 0 1.65625 1.3437505 3 3.0000005 3 h 10.011718 c 1.65625 0 3 -1.34375 3 -3 v -2 c 0 -0.550781 -0.449218 -1 -1 -1 c -0.566406 0 -1 -0.4375 -1 -1 s 0.433594 -1 1 -1 c 0.550782 0 1 -0.449219 1 -1 v -2 c 0 -1.65625 -1.34375 -3 -3 -3 z m 0 2 h 6.015624 v 3 h 1 v -3 h 2.996094 c 0.570313 0 1 0.429687 1 1 v 1.167969 c -1.167968 0.414062 -2 1.523437 -2 2.832031 s 0.832032 2.417969 2 2.832031 v 1.167969 c 0 0.570313 -0.429687 1 -1 1 h -2.996094 v -2 h -1 v 2 h -6.015624 c -0.570313 0 -1 -0.429687 -1 -1 v -1.167969 c 1.164062 -0.414062 2 -1.523437 2 -2.832031 s -0.835938 -2.417969 -2 -2.832031 v -1.167969 c 0 -0.570313 0.429687 -1 1 -1 z m 6.015624 4 v 3 h 1 v -3 z m 0 0" fill="#222222"/>
</svg>
