<?xml version="1.0" encoding="UTF-8"?>
<svg height="128px" viewBox="0 0 128 128" width="128px" xmlns="http://www.w3.org/2000/svg" xmlns:xlink="http://www.w3.org/1999/xlink">
    <filter id="a" height="100%" width="100%" x="0%" y="0%">
        <feColorMatrix color-interpolation-filters="sRGB" values="0 0 0 0 1 0 0 0 0 1 0 0 0 0 1 0 0 0 1 0"/>
    </filter>
    <mask id="b">
        <g filter="url(#a)">
            <rect fill-opacity="0.8" height="153.6" width="153.6" x="-12.8" y="-12.8"/>
        </g>
    </mask>
    <clipPath id="c">
        <rect height="152" width="192"/>
    </clipPath>
    <mask id="d">
        <g filter="url(#a)">
            <rect fill-opacity="0.5" height="153.6" width="153.6" x="-12.8" y="-12.8"/>
        </g>
    </mask>
    <clipPath id="e">
        <rect height="152" width="192"/>
    </clipPath>
    <mask id="f">
        <g filter="url(#a)">
            <rect fill-opacity="0.5" height="153.6" width="153.6" x="-12.8" y="-12.8"/>
        </g>
    </mask>
    <clipPath id="g">
        <rect height="152" width="192"/>
    </clipPath>
    <mask id="h">
        <g filter="url(#a)">
            <rect fill-opacity="0.8" height="153.6" width="153.6" x="-12.8" y="-12.8"/>
        </g>
    </mask>
    <clipPath id="i">
        <rect height="152" width="192"/>
    </clipPath>
    <path d="m 11.789062 37.621094 v 56.816406 c 0 0.96875 0.78125 1.761719 1.757813 1.761719 h 100.945313 c 0.964843 0 1.757812 -0.785157 1.757812 -1.761719 v -56.816406 c 0 -0.96875 -0.785156 -1.757813 -1.757812 -1.757813 h -100.945313 c -0.976563 0 -1.757813 0.789063 -1.757813 1.757813 m 72.261719 54.675781 c -4.851562 3.109375 -10.003906 -2.035156 -6.886719 -6.886719 c 0.207032 -0.328125 0.488282 -0.609375 0.816407 -0.816406 c 4.851562 -3.109375 10.003906 2.035156 6.886719 6.886719 c -0.21875 0.328125 -0.496094 0.609375 -0.816407 0.816406 m 0 -14.648437 c -4.851562 3.105468 -10.003906 -2.039063 -6.886719 -6.886719 c 0.207032 -0.332031 0.488282 -0.609375 0.816407 -0.820313 c 4.851562 -3.105468 10.003906 2.039063 6.886719 6.886719 c -0.21875 0.320313 -0.496094 0.609375 -0.816407 0.820313 m 0 -15.523438 c -4.851562 3.109375 -10.003906 -2.035156 -6.886719 -6.886719 c 0.207032 -0.328125 0.488282 -0.609375 0.816407 -0.816406 c 4.851562 -3.109375 10.003906 2.035156 6.886719 6.886719 c -0.21875 0.320312 -0.496094 0.609375 -0.816407 0.816406 m 0 -14.652344 c -4.851562 3.109375 -10.003906 -2.035156 -6.886719 -6.882812 c 0.207032 -0.332032 0.488282 -0.609375 0.816407 -0.820313 c 4.851562 -3.105469 10.003906 2.039063 6.886719 6.886719 c -0.21875 0.320312 -0.496094 0.609375 -0.816407 0.816406" fill="#a65f3e"/>
    <path d="m 11.789062 35.007812 v 56.820313 c 0 0.964844 0.78125 1.757813 1.757813 1.757813 h 100.945313 c 0.964843 0 1.757812 -0.785157 1.757812 -1.757813 v -56.820313 c 0 -0.964843 -0.785156 -1.757812 -1.757812 -1.757812 h -100.945313 c -0.976563 0 -1.757813 0.792969 -1.757813 1.757812 m 72.261719 54.679688 c -4.851562 3.105469 -10.003906 -2.039062 -6.886719 -6.886719 c 0.207032 -0.332031 0.488282 -0.609375 0.816407 -0.820312 c 4.851562 -3.105469 10.003906 2.039062 6.886719 6.886719 c -0.21875 0.332031 -0.496094 0.609374 -0.816407 0.820312 m 0 -14.652344 c -4.851562 3.109375 -10.003906 -2.039062 -6.886719 -6.886718 c 0.207032 -0.328126 0.488282 -0.609376 0.816407 -0.816407 c 4.851562 -3.109375 10.003906 2.035157 6.886719 6.882813 c -0.21875 0.324218 -0.496094 0.609375 -0.816407 0.820312 m 0 -15.523437 c -4.851562 3.109375 -10.003906 -2.035157 -6.886719 -6.882813 c 0.207032 -0.332031 0.488282 -0.609375 0.816407 -0.820312 c 4.851562 -3.105469 10.003906 2.039062 6.886719 6.886718 c -0.21875 0.320313 -0.496094 0.609376 -0.816407 0.816407 m 0 -14.648438 c -4.851562 3.105469 -10.003906 -2.039062 -6.886719 -6.886719 c 0.207032 -0.332031 0.488282 -0.609374 0.816407 -0.816406 c 4.851562 -3.109375 10.003906 2.035156 6.886719 6.882813 c -0.21875 0.324219 -0.496094 0.609375 -0.816407 0.820312" fill="#ffd54f"/>
    <g mask="url(#b)">
        <g clip-path="url(#c)" transform="matrix(1 0 0 1 -8 -16)">
            <path d="m 15.061988 51.029891 h 32.559536 m -32.559536 15.481036 h 23.068987 m 15.961173 0 h 4.837263" fill="none" stroke="#4e342e" stroke-linecap="round" stroke-miterlimit="10" stroke-width="8" transform="matrix(0.870521 0 0 0.870521 17.036665 24.483673)"/>
        </g>
    </g>
    <g mask="url(#d)">
        <g clip-path="url(#e)" transform="matrix(1 0 0 1 -8 -16)">
            <path d="m 28.839844 94.527344 h 2.613281 v 8.09375 h -2.613281 z m 21.894531 0 h 2.613281 v 8.09375 h -2.613281 z m 4.734375 0 h 2.613281 v 8.09375 h -2.613281 z m -21.484375 0 h 5.222656 v 8.09375 h -5.222656 z m 26.28125 0 h 6.09375 v 8.09375 h -6.09375 z m -18.734375 0 h 6.964844 v 8.09375 h -6.964844 z m 0 0" fill="#6d4c41"/>
        </g>
    </g>
    <path d="m 115.273438 33.25 h -102.519532 c -0.539062 0 -0.964844 0.433594 -0.964844 0.964844 v 8.671875 h 64.808594 c -0.625 -1.453125 -0.558594 -3.28125 0.660156 -5.066407 c 0.167969 -0.242187 0.382813 -0.460937 0.628907 -0.625 c 3.847656 -2.550781 7.921875 0.144532 7.921875 3.792969 c 0 0.671875 -0.140625 1.316407 -0.390625 1.890625 h 30.824219 v -8.671875 c 0.007812 -0.523437 -0.425782 -0.957031 -0.96875 -0.957031" fill="#e2a610"/>
    <g mask="url(#f)">
        <g clip-path="url(#g)" transform="matrix(1 0 0 1 -8 -16)">
            <path d="m 102.183594 66.859375 h 15.867187 v 14.53125 h -15.867187 z m 0 0" fill="#6d4c41"/>
        </g>
    </g>
    <g mask="url(#h)">
        <g clip-path="url(#i)" transform="matrix(1 0 0 1 -8 -16)">
            <path d="m 95.199219 245.023438 h 7.898437 m -7.898437 5.503906 h 12.433593" fill="none" stroke="#4e342e" stroke-linecap="round" stroke-miterlimit="10" stroke-width="2.61156" transform="matrix(1 0 0 1 8 -156)"/>
        </g>
    </g>
</svg>
